G04 ---------------------------- Layer name :BOTTOM SILK LAYER*
G04 easyEDA 0.1*
G04 Scale: 100 percent, Rotated: No, Reflected: No *
G04 Dimensions in inches *
G04 leading zeros omitted , absolute positions ,2 integer and 4 * 
%FSLAX24Y24*%
%MOIN*%
G90*
G70D02*


%LPD*%
%LNVIA PAD TRACK COPPERAREA*%
G36*
G01X60252Y32617D02*
G01X60646Y32617D01*
G01X60646Y32223D01*
G01X60252Y32223D01*
G01X60252Y32617D01*
G37*
G36*
G01X60646Y32617D02*
G01X61040Y32617D01*
G01X61040Y32223D01*
G01X60646Y32223D01*
G01X60646Y32617D01*
G37*
G36*
G01X60252Y32223D02*
G01X60646Y32223D01*
G01X60646Y31830D01*
G01X60252Y31830D01*
G01X60252Y32223D01*
G37*
G36*
G01X60449Y32421D02*
G01X60843Y32421D01*
G01X60843Y32027D01*
G01X60449Y32027D01*
G01X60449Y32421D01*
G37*
G36*
G01X60646Y32223D02*
G01X61040Y32223D01*
G01X61040Y31830D01*
G01X60646Y31830D01*
G01X60646Y32223D01*
G37*
G36*
G01X60252Y31830D02*
G01X60646Y31830D01*
G01X60646Y31436D01*
G01X60252Y31436D01*
G01X60252Y31830D01*
G37*
G36*
G01X60646Y31830D02*
G01X61040Y31830D01*
G01X61040Y31436D01*
G01X60646Y31436D01*
G01X60646Y31830D01*
G37*
G36*
G01X60253Y31436D02*
G01X60647Y31436D01*
G01X60647Y31042D01*
G01X60253Y31042D01*
G01X60253Y31436D01*
G37*
G36*
G01X60646Y31436D02*
G01X61040Y31436D01*
G01X61040Y31042D01*
G01X60646Y31042D01*
G01X60646Y31436D01*
G37*
G36*
G01X61434Y33798D02*
G01X61828Y33798D01*
G01X61828Y33405D01*
G01X61434Y33405D01*
G01X61434Y33798D01*
G37*
G36*
G01X61828Y33798D02*
G01X62222Y33798D01*
G01X62222Y33405D01*
G01X61828Y33405D01*
G01X61828Y33798D01*
G37*
G36*
G01X62222Y33798D02*
G01X62616Y33798D01*
G01X62616Y33405D01*
G01X62222Y33405D01*
G01X62222Y33798D01*
G37*
G36*
G01X62615Y33798D02*
G01X63009Y33798D01*
G01X63009Y33405D01*
G01X62615Y33405D01*
G01X62615Y33798D01*
G37*
G36*
G01X63009Y33798D02*
G01X63403Y33798D01*
G01X63403Y33405D01*
G01X63009Y33405D01*
G01X63009Y33798D01*
G37*
G36*
G01X63402Y33800D02*
G01X63796Y33800D01*
G01X63796Y33405D01*
G01X63402Y33405D01*
G01X63402Y33800D01*
G37*
G36*
G01X63795Y33798D02*
G01X64189Y33798D01*
G01X64189Y33405D01*
G01X63795Y33405D01*
G01X63795Y33798D01*
G37*
G36*
G01X64190Y33798D02*
G01X64584Y33798D01*
G01X64584Y33405D01*
G01X64190Y33405D01*
G01X64190Y33798D01*
G37*
G36*
G01X64583Y33798D02*
G01X64977Y33798D01*
G01X64977Y33405D01*
G01X64583Y33405D01*
G01X64583Y33798D01*
G37*
G36*
G01X64977Y33800D02*
G01X65371Y33800D01*
G01X65371Y33405D01*
G01X64977Y33405D01*
G01X64977Y33800D01*
G37*
G36*
G01X65371Y33798D02*
G01X65765Y33798D01*
G01X65765Y33405D01*
G01X65371Y33405D01*
G01X65371Y33798D01*
G37*
G36*
G01X65764Y33798D02*
G01X66158Y33798D01*
G01X66158Y33405D01*
G01X65764Y33405D01*
G01X65764Y33798D01*
G37*
G36*
G01X62221Y34192D02*
G01X62615Y34192D01*
G01X62615Y33798D01*
G01X62221Y33798D01*
G01X62221Y34192D01*
G37*
G36*
G01X62221Y34586D02*
G01X62615Y34586D01*
G01X62615Y34192D01*
G01X62221Y34192D01*
G01X62221Y34586D01*
G37*
G36*
G01X63008Y34586D02*
G01X63402Y34586D01*
G01X63402Y34192D01*
G01X63008Y34192D01*
G01X63008Y34586D01*
G37*
G36*
G01X63402Y34586D02*
G01X63796Y34586D01*
G01X63796Y34192D01*
G01X63402Y34192D01*
G01X63402Y34586D01*
G37*
G36*
G01X63009Y34980D02*
G01X63403Y34980D01*
G01X63403Y34586D01*
G01X63009Y34586D01*
G01X63009Y34980D01*
G37*
G36*
G01X63402Y34980D02*
G01X63796Y34980D01*
G01X63796Y34586D01*
G01X63402Y34586D01*
G01X63402Y34980D01*
G37*
G36*
G01X64583Y34192D02*
G01X64977Y34192D01*
G01X64977Y33798D01*
G01X64583Y33798D01*
G01X64583Y34192D01*
G37*
G36*
G01X64583Y34586D02*
G01X64977Y34586D01*
G01X64977Y34192D01*
G01X64583Y34192D01*
G01X64583Y34586D01*
G37*
G36*
G01X64977Y34586D02*
G01X65371Y34586D01*
G01X65371Y34192D01*
G01X64977Y34192D01*
G01X64977Y34586D01*
G37*
G36*
G01X64583Y34980D02*
G01X64977Y34980D01*
G01X64977Y34586D01*
G01X64583Y34586D01*
G01X64583Y34980D01*
G37*
G36*
G01X64977Y34980D02*
G01X65371Y34980D01*
G01X65371Y34586D01*
G01X64977Y34586D01*
G01X64977Y34980D01*
G37*
G36*
G01X65370Y34980D02*
G01X65764Y34980D01*
G01X65764Y34586D01*
G01X65370Y34586D01*
G01X65370Y34980D01*
G37*
G36*
G01X65764Y34980D02*
G01X66158Y34980D01*
G01X66158Y34586D01*
G01X65764Y34586D01*
G01X65764Y34980D01*
G37*
G36*
G01X64189Y35375D02*
G01X64583Y35375D01*
G01X64583Y34980D01*
G01X64189Y34980D01*
G01X64189Y35375D01*
G37*
G36*
G01X64583Y35375D02*
G01X64977Y35375D01*
G01X64977Y34980D01*
G01X64583Y34980D01*
G01X64583Y35375D01*
G37*
G36*
G01X64977Y35373D02*
G01X65371Y35373D01*
G01X65371Y34980D01*
G01X64977Y34980D01*
G01X64977Y35373D01*
G37*
G36*
G01X65371Y35375D02*
G01X65765Y35375D01*
G01X65765Y34980D01*
G01X65371Y34980D01*
G01X65371Y35375D01*
G37*
G36*
G01X61433Y34980D02*
G01X61827Y34980D01*
G01X61827Y34586D01*
G01X61433Y34586D01*
G01X61433Y34980D01*
G37*
G36*
G01X61827Y34980D02*
G01X62221Y34980D01*
G01X62221Y34586D01*
G01X61827Y34586D01*
G01X61827Y34980D01*
G37*
G36*
G01X62221Y34980D02*
G01X62615Y34980D01*
G01X62615Y34586D01*
G01X62221Y34586D01*
G01X62221Y34980D01*
G37*
G36*
G01X61827Y35373D02*
G01X62221Y35373D01*
G01X62221Y34980D01*
G01X61827Y34980D01*
G01X61827Y35373D01*
G37*
G36*
G01X62221Y35375D02*
G01X62615Y35375D01*
G01X62615Y34980D01*
G01X62221Y34980D01*
G01X62221Y35375D01*
G37*
G36*
G01X62615Y35373D02*
G01X63009Y35373D01*
G01X63009Y34980D01*
G01X62615Y34980D01*
G01X62615Y35373D01*
G37*
G36*
G01X62221Y35767D02*
G01X62615Y35767D01*
G01X62615Y35373D01*
G01X62221Y35373D01*
G01X62221Y35767D01*
G37*
G36*
G01X62615Y35767D02*
G01X63009Y35767D01*
G01X63009Y35373D01*
G01X62615Y35373D01*
G01X62615Y35767D01*
G37*
G36*
G01X63008Y36161D02*
G01X63402Y36161D01*
G01X63402Y35767D01*
G01X63008Y35767D01*
G01X63008Y36161D01*
G37*
G36*
G01X63402Y36161D02*
G01X63796Y36161D01*
G01X63796Y35767D01*
G01X63402Y35767D01*
G01X63402Y36161D01*
G37*
G36*
G01X64583Y36161D02*
G01X64977Y36161D01*
G01X64977Y35767D01*
G01X64583Y35767D01*
G01X64583Y36161D01*
G37*
G36*
G01X63008Y35767D02*
G01X63402Y35767D01*
G01X63402Y35373D01*
G01X63008Y35373D01*
G01X63008Y35767D01*
G37*
G36*
G01X64189Y35767D02*
G01X64583Y35767D01*
G01X64583Y35373D01*
G01X64189Y35373D01*
G01X64189Y35767D01*
G37*
G36*
G01X64583Y35767D02*
G01X64977Y35767D01*
G01X64977Y35373D01*
G01X64583Y35373D01*
G01X64583Y35767D01*
G37*
G36*
G01X64977Y35767D02*
G01X65371Y35767D01*
G01X65371Y35373D01*
G01X64977Y35373D01*
G01X64977Y35767D01*
G37*
G36*
G01X63796Y35767D02*
G01X64190Y35767D01*
G01X64190Y35373D01*
G01X63796Y35373D01*
G01X63796Y35767D01*
G37*
G36*
G01X63402Y35767D02*
G01X63796Y35767D01*
G01X63796Y35373D01*
G01X63402Y35373D01*
G01X63402Y35767D01*
G37*
G36*
G01X60252Y30648D02*
G01X60646Y30648D01*
G01X60646Y30255D01*
G01X60252Y30255D01*
G01X60252Y30648D01*
G37*
G36*
G01X60646Y30648D02*
G01X61040Y30648D01*
G01X61040Y30255D01*
G01X60646Y30255D01*
G01X60646Y30648D01*
G37*
G36*
G01X60252Y30255D02*
G01X60646Y30255D01*
G01X60646Y29861D01*
G01X60252Y29861D01*
G01X60252Y30255D01*
G37*
G36*
G01X60449Y30452D02*
G01X60843Y30452D01*
G01X60843Y30057D01*
G01X60449Y30057D01*
G01X60449Y30452D01*
G37*
G36*
G01X60646Y30255D02*
G01X61040Y30255D01*
G01X61040Y29861D01*
G01X60646Y29861D01*
G01X60646Y30255D01*
G37*
G36*
G01X60252Y29861D02*
G01X60646Y29861D01*
G01X60646Y29467D01*
G01X60252Y29467D01*
G01X60252Y29861D01*
G37*
G36*
G01X60647Y29861D02*
G01X61041Y29861D01*
G01X61041Y29467D01*
G01X60647Y29467D01*
G01X60647Y29861D01*
G37*
G36*
G01X60253Y29467D02*
G01X60647Y29467D01*
G01X60647Y29073D01*
G01X60253Y29073D01*
G01X60253Y29467D01*
G37*
G36*
G01X66552Y32617D02*
G01X66946Y32617D01*
G01X66946Y32223D01*
G01X66552Y32223D01*
G01X66552Y32617D01*
G37*
G36*
G01X66946Y32617D02*
G01X67340Y32617D01*
G01X67340Y32223D01*
G01X66946Y32223D01*
G01X66946Y32617D01*
G37*
G36*
G01X66552Y32223D02*
G01X66946Y32223D01*
G01X66946Y31830D01*
G01X66552Y31830D01*
G01X66552Y32223D01*
G37*
G36*
G01X66749Y32421D02*
G01X67143Y32421D01*
G01X67143Y32027D01*
G01X66749Y32027D01*
G01X66749Y32421D01*
G37*
G36*
G01X66946Y32223D02*
G01X67340Y32223D01*
G01X67340Y31830D01*
G01X66946Y31830D01*
G01X66946Y32223D01*
G37*
G36*
G01X66552Y31830D02*
G01X66946Y31830D01*
G01X66946Y31436D01*
G01X66552Y31436D01*
G01X66552Y31830D01*
G37*
G36*
G01X66946Y31830D02*
G01X67340Y31830D01*
G01X67340Y31436D01*
G01X66946Y31436D01*
G01X66946Y31830D01*
G37*
G36*
G01X66552Y31436D02*
G01X66946Y31436D01*
G01X66946Y31042D01*
G01X66552Y31042D01*
G01X66552Y31436D01*
G37*
G36*
G01X66552Y30648D02*
G01X66946Y30648D01*
G01X66946Y30255D01*
G01X66552Y30255D01*
G01X66552Y30648D01*
G37*
G36*
G01X66946Y30648D02*
G01X67340Y30648D01*
G01X67340Y30255D01*
G01X66946Y30255D01*
G01X66946Y30648D01*
G37*
G36*
G01X66552Y30255D02*
G01X66946Y30255D01*
G01X66946Y29861D01*
G01X66552Y29861D01*
G01X66552Y30255D01*
G37*
G36*
G01X66749Y30452D02*
G01X67143Y30452D01*
G01X67143Y30057D01*
G01X66749Y30057D01*
G01X66749Y30452D01*
G37*
G36*
G01X66946Y30255D02*
G01X67340Y30255D01*
G01X67340Y29861D01*
G01X66946Y29861D01*
G01X66946Y30255D01*
G37*
G36*
G01X66552Y29861D02*
G01X66946Y29861D01*
G01X66946Y29467D01*
G01X66552Y29467D01*
G01X66552Y29861D01*
G37*
G36*
G01X66946Y29861D02*
G01X67340Y29861D01*
G01X67340Y29467D01*
G01X66946Y29467D01*
G01X66946Y29861D01*
G37*
G36*
G01X66552Y29467D02*
G01X66946Y29467D01*
G01X66946Y29073D01*
G01X66552Y29073D01*
G01X66552Y29467D01*
G37*
G36*
G01X60646Y29467D02*
G01X61040Y29467D01*
G01X61040Y29073D01*
G01X60646Y29073D01*
G01X60646Y29467D01*
G37*
G36*
G01X66945Y29469D02*
G01X67339Y29469D01*
G01X67339Y29075D01*
G01X66945Y29075D01*
G01X66945Y29469D01*
G37*
G36*
G01X66945Y31436D02*
G01X67339Y31436D01*
G01X67339Y31042D01*
G01X66945Y31042D01*
G01X66945Y31436D01*
G37*
G36*
G01X61434Y33011D02*
G01X61828Y33011D01*
G01X61828Y32617D01*
G01X61434Y32617D01*
G01X61434Y33011D01*
G37*
G36*
G01X61827Y33011D02*
G01X62221Y33011D01*
G01X62221Y32617D01*
G01X61827Y32617D01*
G01X61827Y33011D01*
G37*
G36*
G01X61434Y32617D02*
G01X61828Y32617D01*
G01X61828Y32223D01*
G01X61434Y32223D01*
G01X61434Y32617D01*
G37*
G36*
G01X61827Y32617D02*
G01X62221Y32617D01*
G01X62221Y32223D01*
G01X61827Y32223D01*
G01X61827Y32617D01*
G37*
G36*
G01X61434Y32225D02*
G01X61828Y32225D01*
G01X61828Y31830D01*
G01X61434Y31830D01*
G01X61434Y32225D01*
G37*
G36*
G01X61828Y32225D02*
G01X62222Y32225D01*
G01X62222Y31830D01*
G01X61828Y31830D01*
G01X61828Y32225D01*
G37*
G36*
G01X61435Y31830D02*
G01X61829Y31830D01*
G01X61829Y31436D01*
G01X61435Y31436D01*
G01X61435Y31830D01*
G37*
G36*
G01X61827Y31830D02*
G01X62221Y31830D01*
G01X62221Y31436D01*
G01X61827Y31436D01*
G01X61827Y31830D01*
G37*
G36*
G01X61433Y32225D02*
G01X61827Y32225D01*
G01X61827Y31830D01*
G01X61433Y31830D01*
G01X61433Y32225D01*
G37*
G36*
G01X61827Y32223D02*
G01X62221Y32223D01*
G01X62221Y31830D01*
G01X61827Y31830D01*
G01X61827Y32223D01*
G37*
G36*
G01X61433Y31830D02*
G01X61827Y31830D01*
G01X61827Y31436D01*
G01X61433Y31436D01*
G01X61433Y31830D01*
G37*
G36*
G01X61827Y31830D02*
G01X62221Y31830D01*
G01X62221Y31436D01*
G01X61827Y31436D01*
G01X61827Y31830D01*
G37*
G36*
G01X61433Y31436D02*
G01X61827Y31436D01*
G01X61827Y31042D01*
G01X61433Y31042D01*
G01X61433Y31436D01*
G37*
G36*
G01X61827Y31436D02*
G01X62221Y31436D01*
G01X62221Y31042D01*
G01X61827Y31042D01*
G01X61827Y31436D01*
G37*
G36*
G01X61434Y31042D02*
G01X61828Y31042D01*
G01X61828Y30648D01*
G01X61434Y30648D01*
G01X61434Y31042D01*
G37*
G36*
G01X61827Y31042D02*
G01X62221Y31042D01*
G01X62221Y30648D01*
G01X61827Y30648D01*
G01X61827Y31042D01*
G37*
G36*
G01X62221Y33011D02*
G01X62615Y33011D01*
G01X62615Y32617D01*
G01X62221Y32617D01*
G01X62221Y33011D01*
G37*
G36*
G01X62615Y33011D02*
G01X63009Y33011D01*
G01X63009Y32617D01*
G01X62615Y32617D01*
G01X62615Y33011D01*
G37*
G36*
G01X63008Y33011D02*
G01X63402Y33011D01*
G01X63402Y32617D01*
G01X63008Y32617D01*
G01X63008Y33011D01*
G37*
G36*
G01X63401Y33011D02*
G01X63795Y33011D01*
G01X63795Y32617D01*
G01X63401Y32617D01*
G01X63401Y33011D01*
G37*
G36*
G01X63795Y33011D02*
G01X64189Y33011D01*
G01X64189Y32617D01*
G01X63795Y32617D01*
G01X63795Y33011D01*
G37*
G36*
G01X64189Y33011D02*
G01X64583Y33011D01*
G01X64583Y32617D01*
G01X64189Y32617D01*
G01X64189Y33011D01*
G37*
G36*
G01X62221Y32223D02*
G01X62615Y32223D01*
G01X62615Y31828D01*
G01X62221Y31828D01*
G01X62221Y32223D01*
G37*
G36*
G01X62615Y32223D02*
G01X63009Y32223D01*
G01X63009Y31828D01*
G01X62615Y31828D01*
G01X62615Y32223D01*
G37*
G36*
G01X63008Y32223D02*
G01X63402Y32223D01*
G01X63402Y31828D01*
G01X63008Y31828D01*
G01X63008Y32223D01*
G37*
G36*
G01X63401Y32223D02*
G01X63795Y32223D01*
G01X63795Y31830D01*
G01X63401Y31830D01*
G01X63401Y32223D01*
G37*
G36*
G01X63794Y32223D02*
G01X64188Y32223D01*
G01X64188Y31828D01*
G01X63794Y31828D01*
G01X63794Y32223D01*
G37*
G36*
G01X64189Y32223D02*
G01X64583Y32223D01*
G01X64583Y31828D01*
G01X64189Y31828D01*
G01X64189Y32223D01*
G37*
G36*
G01X62221Y31436D02*
G01X62615Y31436D01*
G01X62615Y31042D01*
G01X62221Y31042D01*
G01X62221Y31436D01*
G37*
G36*
G01X62614Y31436D02*
G01X63008Y31436D01*
G01X63008Y31042D01*
G01X62614Y31042D01*
G01X62614Y31436D01*
G37*
G36*
G01X63008Y31436D02*
G01X63402Y31436D01*
G01X63402Y31042D01*
G01X63008Y31042D01*
G01X63008Y31436D01*
G37*
G36*
G01X63401Y31436D02*
G01X63795Y31436D01*
G01X63795Y31042D01*
G01X63401Y31042D01*
G01X63401Y31436D01*
G37*
G36*
G01X63794Y31436D02*
G01X64188Y31436D01*
G01X64188Y31042D01*
G01X63794Y31042D01*
G01X63794Y31436D01*
G37*
G36*
G01X64189Y31436D02*
G01X64583Y31436D01*
G01X64583Y31042D01*
G01X64189Y31042D01*
G01X64189Y31436D01*
G37*
G36*
G01X64978Y31042D02*
G01X65372Y31042D01*
G01X65372Y30648D01*
G01X64978Y30648D01*
G01X64978Y31042D01*
G37*
G36*
G01X64978Y31436D02*
G01X65372Y31436D01*
G01X65372Y31042D01*
G01X64978Y31042D01*
G01X64978Y31436D01*
G37*
G36*
G01X64977Y31830D02*
G01X65371Y31830D01*
G01X65371Y31436D01*
G01X64977Y31436D01*
G01X64977Y31830D01*
G37*
G36*
G01X64977Y32223D02*
G01X65371Y32223D01*
G01X65371Y31828D01*
G01X64977Y31828D01*
G01X64977Y32223D01*
G37*
G36*
G01X64977Y32615D02*
G01X65371Y32615D01*
G01X65371Y32221D01*
G01X64977Y32221D01*
G01X64977Y32615D01*
G37*
G36*
G01X64977Y33011D02*
G01X65371Y33011D01*
G01X65371Y32617D01*
G01X64977Y32617D01*
G01X64977Y33011D01*
G37*
G36*
G01X64190Y30846D02*
G01X64584Y30846D01*
G01X64584Y30453D01*
G01X64190Y30453D01*
G01X64190Y30846D01*
G37*
G36*
G01X64190Y31240D02*
G01X64584Y31240D01*
G01X64584Y30846D01*
G01X64190Y30846D01*
G01X64190Y31240D01*
G37*
G36*
G01X64190Y31634D02*
G01X64584Y31634D01*
G01X64584Y31240D01*
G01X64190Y31240D01*
G01X64190Y31634D01*
G37*
G36*
G01X64189Y32027D02*
G01X64583Y32027D01*
G01X64583Y31632D01*
G01X64189Y31632D01*
G01X64189Y32027D01*
G37*
G36*
G01X64190Y32421D02*
G01X64584Y32421D01*
G01X64584Y32027D01*
G01X64190Y32027D01*
G01X64190Y32421D01*
G37*
G36*
G01X64190Y32815D02*
G01X64584Y32815D01*
G01X64584Y32421D01*
G01X64190Y32421D01*
G01X64190Y32815D01*
G37*
G36*
G01X65765Y31044D02*
G01X66159Y31044D01*
G01X66159Y30650D01*
G01X65765Y30650D01*
G01X65765Y31044D01*
G37*
G36*
G01X65765Y31436D02*
G01X66159Y31436D01*
G01X66159Y31042D01*
G01X65765Y31042D01*
G01X65765Y31436D01*
G37*
G36*
G01X65765Y31830D02*
G01X66159Y31830D01*
G01X66159Y31436D01*
G01X65765Y31436D01*
G01X65765Y31830D01*
G37*
G36*
G01X65764Y32223D02*
G01X66158Y32223D01*
G01X66158Y31830D01*
G01X65764Y31830D01*
G01X65764Y32223D01*
G37*
G36*
G01X65765Y32617D02*
G01X66159Y32617D01*
G01X66159Y32223D01*
G01X65765Y32223D01*
G01X65765Y32617D01*
G37*
G36*
G01X65765Y33011D02*
G01X66159Y33011D01*
G01X66159Y32617D01*
G01X65765Y32617D01*
G01X65765Y33011D01*
G37*
G36*
G01X65765Y29469D02*
G01X66159Y29469D01*
G01X66159Y29075D01*
G01X65765Y29075D01*
G01X65765Y29469D01*
G37*
G36*
G01X65765Y29863D02*
G01X66159Y29863D01*
G01X66159Y29469D01*
G01X65765Y29469D01*
G01X65765Y29863D01*
G37*
G36*
G01X65764Y30255D02*
G01X66158Y30255D01*
G01X66158Y29861D01*
G01X65764Y29861D01*
G01X65764Y30255D01*
G37*
G36*
G01X65764Y30648D02*
G01X66158Y30648D01*
G01X66158Y30255D01*
G01X65764Y30255D01*
G01X65764Y30648D01*
G37*
G36*
G01X65764Y31042D02*
G01X66158Y31042D01*
G01X66158Y30648D01*
G01X65764Y30648D01*
G01X65764Y31042D01*
G37*
G36*
G01X65764Y31436D02*
G01X66158Y31436D01*
G01X66158Y31042D01*
G01X65764Y31042D01*
G01X65764Y31436D01*
G37*
G36*
G01X64191Y29861D02*
G01X64585Y29861D01*
G01X64585Y29467D01*
G01X64191Y29467D01*
G01X64191Y29861D01*
G37*
G36*
G01X64191Y30255D02*
G01X64585Y30255D01*
G01X64585Y29861D01*
G01X64191Y29861D01*
G01X64191Y30255D01*
G37*
G36*
G01X64190Y30648D02*
G01X64584Y30648D01*
G01X64584Y30255D01*
G01X64190Y30255D01*
G01X64190Y30648D01*
G37*
G36*
G01X64190Y31042D02*
G01X64584Y31042D01*
G01X64584Y30648D01*
G01X64190Y30648D01*
G01X64190Y31042D01*
G37*
G36*
G01X64190Y31436D02*
G01X64584Y31436D01*
G01X64584Y31042D01*
G01X64190Y31042D01*
G01X64190Y31436D01*
G37*
G36*
G01X64190Y31830D02*
G01X64584Y31830D01*
G01X64584Y31436D01*
G01X64190Y31436D01*
G01X64190Y31830D01*
G37*
G36*
G01X63795Y29075D02*
G01X64189Y29075D01*
G01X64189Y28680D01*
G01X63795Y28680D01*
G01X63795Y29075D01*
G37*
G36*
G01X63402Y29075D02*
G01X63796Y29075D01*
G01X63796Y28680D01*
G01X63402Y28680D01*
G01X63402Y29075D01*
G37*
G36*
G01X63008Y29073D02*
G01X63402Y29073D01*
G01X63402Y28680D01*
G01X63008Y28680D01*
G01X63008Y29073D01*
G37*
G36*
G01X62615Y29073D02*
G01X63009Y29073D01*
G01X63009Y28680D01*
G01X62615Y28680D01*
G01X62615Y29073D01*
G37*
G36*
G01X62222Y29073D02*
G01X62616Y29073D01*
G01X62616Y28680D01*
G01X62222Y28680D01*
G01X62222Y29073D01*
G37*
G36*
G01X61827Y29073D02*
G01X62221Y29073D01*
G01X62221Y28680D01*
G01X61827Y28680D01*
G01X61827Y29073D01*
G37*
G36*
G01X65370Y29075D02*
G01X65764Y29075D01*
G01X65764Y28680D01*
G01X65370Y28680D01*
G01X65370Y29075D01*
G37*
G36*
G01X64976Y29075D02*
G01X65370Y29075D01*
G01X65370Y28680D01*
G01X64976Y28680D01*
G01X64976Y29075D01*
G37*
G36*
G01X64583Y29075D02*
G01X64977Y29075D01*
G01X64977Y28680D01*
G01X64583Y28680D01*
G01X64583Y29075D01*
G37*
G36*
G01X64190Y29073D02*
G01X64584Y29073D01*
G01X64584Y28680D01*
G01X64190Y28680D01*
G01X64190Y29073D01*
G37*
G36*
G01X63796Y29075D02*
G01X64190Y29075D01*
G01X64190Y28680D01*
G01X63796Y28680D01*
G01X63796Y29075D01*
G37*
G36*
G01X63402Y29075D02*
G01X63796Y29075D01*
G01X63796Y28680D01*
G01X63402Y28680D01*
G01X63402Y29075D01*
G37*
G36*
G01X64584Y29861D02*
G01X64978Y29861D01*
G01X64978Y29467D01*
G01X64584Y29467D01*
G01X64584Y29861D01*
G37*
G36*
G01X64585Y30255D02*
G01X64979Y30255D01*
G01X64979Y29861D01*
G01X64585Y29861D01*
G01X64585Y30255D01*
G37*
G36*
G01X64978Y29861D02*
G01X65372Y29861D01*
G01X65372Y29467D01*
G01X64978Y29467D01*
G01X64978Y29861D01*
G37*
G36*
G01X64978Y30255D02*
G01X65372Y30255D01*
G01X65372Y29861D01*
G01X64978Y29861D01*
G01X64978Y30255D01*
G37*
G36*
G01X65371Y29861D02*
G01X65765Y29861D01*
G01X65765Y29467D01*
G01X65371Y29467D01*
G01X65371Y29861D01*
G37*
G36*
G01X65371Y30255D02*
G01X65765Y30255D01*
G01X65765Y29861D01*
G01X65371Y29861D01*
G01X65371Y30255D01*
G37*
G36*
G01X61827Y31042D02*
G01X62221Y31042D01*
G01X62221Y30648D01*
G01X61827Y30648D01*
G01X61827Y31042D01*
G37*
G36*
G01X61827Y31436D02*
G01X62221Y31436D01*
G01X62221Y31042D01*
G01X61827Y31042D01*
G01X61827Y31436D01*
G37*
G36*
G01X62221Y31042D02*
G01X62615Y31042D01*
G01X62615Y30648D01*
G01X62221Y30648D01*
G01X62221Y31042D01*
G37*
G36*
G01X62221Y31436D02*
G01X62615Y31436D01*
G01X62615Y31042D01*
G01X62221Y31042D01*
G01X62221Y31436D01*
G37*
G36*
G01X62614Y31042D02*
G01X63008Y31042D01*
G01X63008Y30648D01*
G01X62614Y30648D01*
G01X62614Y31042D01*
G37*
G36*
G01X62614Y31436D02*
G01X63008Y31436D01*
G01X63008Y31042D01*
G01X62614Y31042D01*
G01X62614Y31436D01*
G37*
G36*
G01X61827Y30255D02*
G01X62221Y30255D01*
G01X62221Y29861D01*
G01X61827Y29861D01*
G01X61827Y30255D01*
G37*
G36*
G01X61827Y29863D02*
G01X62221Y29863D01*
G01X62221Y29469D01*
G01X61827Y29469D01*
G01X61827Y29863D01*
G37*
G36*
G01X62615Y29863D02*
G01X63009Y29863D01*
G01X63009Y29469D01*
G01X62615Y29469D01*
G01X62615Y29863D01*
G37*
G36*
G01X62614Y30255D02*
G01X63008Y30255D01*
G01X63008Y29861D01*
G01X62614Y29861D01*
G01X62614Y30255D01*
G37*
G36*
G01X62615Y30648D02*
G01X63009Y30648D01*
G01X63009Y30255D01*
G01X62615Y30255D01*
G01X62615Y30648D01*
G37*
G36*
G01X63402Y30255D02*
G01X63796Y30255D01*
G01X63796Y29861D01*
G01X63402Y29861D01*
G01X63402Y30255D01*
G37*
G36*
G01X63402Y30648D02*
G01X63796Y30648D01*
G01X63796Y30255D01*
G01X63402Y30255D01*
G01X63402Y30648D01*
G37*
G36*
G01X63008Y27894D02*
G01X63402Y27894D01*
G01X63402Y27500D01*
G01X63008Y27500D01*
G01X63008Y27894D01*
G37*
G36*
G01X63402Y27894D02*
G01X63796Y27894D01*
G01X63796Y27500D01*
G01X63402Y27500D01*
G01X63402Y27894D01*
G37*
G36*
G01X63796Y27894D02*
G01X64190Y27894D01*
G01X64190Y27500D01*
G01X63796Y27500D01*
G01X63796Y27894D01*
G37*
G36*
G01X64189Y27894D02*
G01X64583Y27894D01*
G01X64583Y27500D01*
G01X64189Y27500D01*
G01X64189Y27894D01*
G37*
G36*
G01X63402Y28286D02*
G01X63796Y28286D01*
G01X63796Y27892D01*
G01X63402Y27892D01*
G01X63402Y28286D01*
G37*
G36*
G01X63796Y28288D02*
G01X64190Y28288D01*
G01X64190Y27894D01*
G01X63796Y27894D01*
G01X63796Y28288D01*
G37*
G36*
G01X60252Y28682D02*
G01X60646Y28682D01*
G01X60646Y28288D01*
G01X60252Y28288D01*
G01X60252Y28682D01*
G37*
G36*
G01X60646Y28680D02*
G01X61040Y28680D01*
G01X61040Y28286D01*
G01X60646Y28286D01*
G01X60646Y28680D01*
G37*
G36*
G01X60646Y28288D02*
G01X61040Y28288D01*
G01X61040Y27894D01*
G01X60646Y27894D01*
G01X60646Y28288D01*
G37*
G36*
G01X60646Y27894D02*
G01X61040Y27894D01*
G01X61040Y27500D01*
G01X60646Y27500D01*
G01X60646Y27894D01*
G37*
G36*
G01X60252Y27894D02*
G01X60646Y27894D01*
G01X60646Y27500D01*
G01X60252Y27500D01*
G01X60252Y27894D01*
G37*
G36*
G01X60252Y28286D02*
G01X60646Y28286D01*
G01X60646Y27892D01*
G01X60252Y27892D01*
G01X60252Y28286D01*
G37*
G36*
G01X59858Y28286D02*
G01X60252Y28286D01*
G01X60252Y27892D01*
G01X59858Y27892D01*
G01X59858Y28286D01*
G37*
G36*
G01X59859Y27894D02*
G01X60253Y27894D01*
G01X60253Y27500D01*
G01X59859Y27500D01*
G01X59859Y27894D01*
G37*
G36*
G01X66551Y28680D02*
G01X66945Y28680D01*
G01X66945Y28286D01*
G01X66551Y28286D01*
G01X66551Y28680D01*
G37*
G36*
G01X66945Y28682D02*
G01X67339Y28682D01*
G01X67339Y28288D01*
G01X66945Y28288D01*
G01X66945Y28682D01*
G37*
G36*
G01X66551Y28288D02*
G01X66945Y28288D01*
G01X66945Y27894D01*
G01X66551Y27894D01*
G01X66551Y28288D01*
G37*
G36*
G01X66552Y27894D02*
G01X66946Y27894D01*
G01X66946Y27500D01*
G01X66552Y27500D01*
G01X66552Y27894D01*
G37*
G36*
G01X66945Y28286D02*
G01X67339Y28286D01*
G01X67339Y27892D01*
G01X66945Y27892D01*
G01X66945Y28286D01*
G37*
G36*
G01X66945Y27894D02*
G01X67339Y27894D01*
G01X67339Y27500D01*
G01X66945Y27500D01*
G01X66945Y27894D01*
G37*
G36*
G01X67339Y27894D02*
G01X67733Y27894D01*
G01X67733Y27500D01*
G01X67339Y27500D01*
G01X67339Y27894D01*
G37*
G36*
G01X67339Y28286D02*
G01X67733Y28286D01*
G01X67733Y27892D01*
G01X67339Y27892D01*
G01X67339Y28286D01*
G37*

M00*
M02*