;PTH Drill file created by EasyEDA 
M48
;Holesize 1 = 0.012 INCH
T01C0.012
INCH,00.0000
%
G05
G90
T01
X066961Y026717
X062221Y026715
X057502Y026709
X052773Y026709
X000805Y033796
X001198Y033796
X001592Y033796
X001986Y033796
X003955Y034977
X006317Y035371
X007105Y036946
X007105Y036552
X007105Y036157
X007105Y035765
X003167Y026315
X003561Y026315
X003955Y026315
X004348Y026315
X002380Y042457
X001198Y042457
X003167Y038913
X003561Y042457
X003955Y038127
X003955Y037732
X003167Y044819
X002773Y036946
X004348Y036552
X005923Y037732
X003561Y039702
X004743Y040882
X000805Y035765
X001198Y038913
X006317Y033402
X004743Y026315
X001198Y030832
X001592Y029640
X001986Y032044
X070489Y044819
X070884Y040488
X071277Y036157
X069702Y027890
X070097Y028284
X070489Y028678
X072852Y031828
X071672Y031040
X074034Y027890
X072852Y024740
M30
